<svg width="39" height="39" viewBox="0 0 39 39" fill="none" xmlns="http://www.w3.org/2000/svg">
<path d="M36.5642 19.8789C36.5642 18.476 36.448 17.4523 36.1966 16.3906H19.8499V22.7226H29.4451C29.2517 24.2962 28.207 26.666 25.8856 28.2585L25.853 28.4704L31.0216 32.3944L31.3796 32.4294C34.6683 29.4529 36.5642 25.0735 36.5642 19.8789Z" fill="#4285F4"/>
<path d="M19.8488 36.5625C24.5497 36.5625 28.496 35.0457 31.3785 32.4295L25.8845 28.2585C24.4143 29.2633 22.441 29.9648 19.8488 29.9648C15.2447 29.9648 11.337 26.9884 9.94405 22.8744L9.73987 22.8914L4.36557 26.9675L4.29529 27.159C7.15834 32.7327 13.0393 36.5625 19.8488 36.5625Z" fill="#34A853"/>
<path d="M9.94496 22.8746C9.5774 21.8129 9.36469 20.6753 9.36469 19.5C9.36469 18.3245 9.5774 17.187 9.92562 16.1254L9.91588 15.8993L4.47422 11.7577L4.29618 11.8407C3.11618 14.1537 2.43909 16.751 2.43909 19.5C2.43909 22.2489 3.11618 24.8461 4.29618 27.1591L9.94496 22.8746Z" fill="#FBBC05"/>
<path d="M19.8489 9.03495C23.1182 9.03495 25.3235 10.4189 26.581 11.5754L31.4947 6.87375C28.4769 4.1248 24.5498 2.4375 19.8489 2.4375C13.0393 2.4375 7.15836 6.26705 4.29529 11.8408L9.92474 16.1254C11.3371 12.0114 15.2448 9.03495 19.8489 9.03495Z" fill="#EB4335"/>
</svg>
